G04 PROTEUS GERBER X2 FILE*
%TF.GenerationSoftware,Labcenter,Proteus,8.6-SP2-Build23525*%
%TF.CreationDate,2021-03-06T05:49:37+00:00*%
%TF.FileFunction,Legend,Top*%
%TF.FilePolarity,Positive*%
%TF.Part,Single*%
%FSLAX45Y45*%
%MOMM*%
G01*
%TA.AperFunction,Material*%
%ADD71C,0.203200*%
%TA.AperFunction,Profile*%
%ADD19C,0.203200*%
%TD.AperFunction*%
D71*
X-3107441Y-2947460D02*
X+1792559Y-2947460D01*
X+1792559Y-347460D01*
X-3107441Y-347460D01*
X-3107441Y-2947460D01*
X-3107441Y-1947460D02*
X-2807441Y-1947460D01*
X-2807441Y-1197460D01*
X-3107441Y-1197460D01*
X-3107441Y-1947460D01*
X+1142559Y-2347460D02*
X+1792559Y-2347460D01*
X+1792559Y-847460D01*
X+1142559Y-847460D01*
X+1142559Y-2347460D01*
X+1142559Y-1097460D02*
X+1792559Y-1097460D01*
X+1142559Y-1497460D02*
X+1792559Y-1497460D01*
X+1142559Y-1947460D02*
X+1792559Y-1947460D01*
X-974941Y-306820D02*
X-974941Y-215380D01*
X-879691Y-306820D01*
X-879691Y-215380D01*
X-847941Y-306820D02*
X-847941Y-215380D01*
X-784441Y-215380D01*
X-752691Y-245860D01*
X-752691Y-276340D01*
X-784441Y-306820D01*
X-847941Y-306820D01*
X-625691Y-291580D02*
X-641566Y-306820D01*
X-689191Y-306820D01*
X-720941Y-276340D01*
X-720941Y-245860D01*
X-689191Y-215380D01*
X-641566Y-215380D01*
X-625691Y-230620D01*
X-593941Y-215380D02*
X-593941Y-291580D01*
X-578066Y-306820D01*
X-514566Y-306820D01*
X-498691Y-291580D01*
X-498691Y-215380D01*
X-435191Y-245860D02*
X-403441Y-215380D01*
X-403441Y-306820D01*
X+275201Y+140000D02*
X+1575201Y+140000D01*
X+1575201Y+840000D01*
X+275201Y+840000D01*
X+275201Y+140000D01*
X+721201Y+640D02*
X+721201Y+92080D01*
X+800576Y+92080D01*
X+816451Y+76840D01*
X+816451Y+61600D01*
X+800576Y+46360D01*
X+816451Y+31120D01*
X+816451Y+15880D01*
X+800576Y+640D01*
X+721201Y+640D01*
X+721201Y+46360D02*
X+800576Y+46360D01*
X+848201Y+92080D02*
X+943451Y+92080D01*
X+895826Y+92080D02*
X+895826Y+640D01*
X+975201Y+640D02*
X+975201Y+92080D01*
X+1070451Y+640D01*
X+1070451Y+92080D01*
X+1133951Y+61600D02*
X+1165701Y+92080D01*
X+1165701Y+640D01*
X-2469530Y-1280185D02*
X-2469530Y-1407185D01*
X-2533030Y-1915185D02*
X-2406030Y-1915185D01*
X-2406030Y-1407185D01*
X-2533030Y-1407185D01*
X-2533030Y-1915185D01*
X-2469530Y-1915185D02*
X-2469530Y-2042185D01*
X-2223950Y-1788185D02*
X-2315390Y-1788185D01*
X-2315390Y-1708810D01*
X-2300150Y-1692935D01*
X-2284910Y-1692935D01*
X-2269670Y-1708810D01*
X-2269670Y-1788185D01*
X-2269670Y-1708810D02*
X-2254430Y-1692935D01*
X-2223950Y-1692935D01*
X-2284910Y-1629435D02*
X-2315390Y-1597685D01*
X-2223950Y-1597685D01*
X-2729000Y+330000D02*
X-2729827Y+350483D01*
X-2736545Y+391450D01*
X-2750563Y+432417D01*
X-2773341Y+473384D01*
X-2808141Y+514229D01*
X-2849108Y+545845D01*
X-2890075Y+566392D01*
X-2931042Y+578629D01*
X-2972009Y+583762D01*
X-2983000Y+584000D01*
X-3237000Y+330000D02*
X-3236173Y+350483D01*
X-3229455Y+391450D01*
X-3215437Y+432417D01*
X-3192659Y+473384D01*
X-3157859Y+514229D01*
X-3116892Y+545845D01*
X-3075925Y+566392D01*
X-3034958Y+578629D01*
X-2993991Y+583762D01*
X-2983000Y+584000D01*
X-3237000Y+330000D02*
X-3236173Y+309517D01*
X-3229455Y+268550D01*
X-3215437Y+227583D01*
X-3192659Y+186616D01*
X-3157859Y+145771D01*
X-3116892Y+114155D01*
X-3075925Y+93608D01*
X-3034958Y+81371D01*
X-2993991Y+76238D01*
X-2983000Y+76000D01*
X-2729000Y+330000D02*
X-2729827Y+309517D01*
X-2736545Y+268550D01*
X-2750563Y+227583D01*
X-2773341Y+186616D01*
X-2808141Y+145771D01*
X-2849108Y+114155D01*
X-2890075Y+93608D01*
X-2931042Y+81371D01*
X-2972009Y+76238D01*
X-2983000Y+76000D01*
X-2665500Y+76000D02*
X-2792500Y+76000D01*
X-2729000Y+12500D02*
X-2729000Y+139500D01*
X-3078250Y+630420D02*
X-3078250Y+721860D01*
X-3014750Y+721860D01*
X-2983000Y+691380D01*
X-2983000Y+660900D01*
X-3014750Y+630420D01*
X-3078250Y+630420D01*
X-2856000Y+660900D02*
X-2951250Y+660900D01*
X-2887750Y+721860D01*
X-2887750Y+630420D01*
X+2547853Y-5196706D02*
X+2801853Y-5196706D01*
X+2801853Y-4180706D01*
X+2547853Y-4180706D01*
X+2547853Y-5196706D01*
X+2958693Y-5089706D02*
X+2973933Y-5073831D01*
X+2973933Y-5010331D01*
X+2958693Y-4994456D01*
X+2943453Y-4994456D01*
X+2928213Y-5010331D01*
X+2928213Y-5073831D01*
X+2912973Y-5089706D01*
X+2897733Y-5089706D01*
X+2882493Y-5073831D01*
X+2882493Y-5010331D01*
X+2897733Y-4994456D01*
X+2973933Y-4867456D02*
X+2973933Y-4962706D01*
X+2882493Y-4962706D01*
X+2882493Y-4867456D01*
X+2928213Y-4962706D02*
X+2928213Y-4899206D01*
X+2973933Y-4835706D02*
X+2882493Y-4835706D01*
X+2882493Y-4756331D01*
X+2897733Y-4740456D01*
X+2912973Y-4740456D01*
X+2928213Y-4756331D01*
X+2928213Y-4835706D01*
X+2928213Y-4756331D02*
X+2943453Y-4740456D01*
X+2973933Y-4740456D01*
X+2882493Y-4708706D02*
X+2928213Y-4708706D01*
X+2973933Y-4661081D01*
X+2928213Y-4613456D01*
X+2882493Y-4613456D01*
X+2912973Y-4581706D02*
X+2882493Y-4549956D01*
X+2882493Y-4518206D01*
X+2912973Y-4486456D01*
X+2943453Y-4486456D01*
X+2973933Y-4518206D01*
X+2973933Y-4549956D01*
X+2943453Y-4581706D01*
X+2912973Y-4581706D01*
X+2912973Y-4422956D02*
X+2882493Y-4391206D01*
X+2973933Y-4391206D01*
X+2575559Y-3539000D02*
X+2829559Y-3539000D01*
X+2829559Y-2523000D01*
X+2575559Y-2523000D01*
X+2575559Y-3539000D01*
X+2996399Y-3422000D02*
X+3011639Y-3406125D01*
X+3011639Y-3342625D01*
X+2996399Y-3326750D01*
X+2981159Y-3326750D01*
X+2965919Y-3342625D01*
X+2965919Y-3406125D01*
X+2950679Y-3422000D01*
X+2935439Y-3422000D01*
X+2920199Y-3406125D01*
X+2920199Y-3342625D01*
X+2935439Y-3326750D01*
X+3011639Y-3199750D02*
X+3011639Y-3295000D01*
X+2920199Y-3295000D01*
X+2920199Y-3199750D01*
X+2965919Y-3295000D02*
X+2965919Y-3231500D01*
X+3011639Y-3168000D02*
X+2920199Y-3168000D01*
X+2920199Y-3088625D01*
X+2935439Y-3072750D01*
X+2950679Y-3072750D01*
X+2965919Y-3088625D01*
X+2965919Y-3168000D01*
X+2965919Y-3088625D02*
X+2981159Y-3072750D01*
X+3011639Y-3072750D01*
X+2920199Y-3041000D02*
X+2965919Y-3041000D01*
X+3011639Y-2993375D01*
X+2965919Y-2945750D01*
X+2920199Y-2945750D01*
X+2950679Y-2914000D02*
X+2920199Y-2882250D01*
X+2920199Y-2850500D01*
X+2950679Y-2818750D01*
X+2981159Y-2818750D01*
X+3011639Y-2850500D01*
X+3011639Y-2882250D01*
X+2981159Y-2914000D01*
X+2950679Y-2914000D01*
X+2935439Y-2771125D02*
X+2920199Y-2755250D01*
X+2920199Y-2707625D01*
X+2935439Y-2691750D01*
X+2950679Y-2691750D01*
X+2965919Y-2707625D01*
X+2965919Y-2755250D01*
X+2981159Y-2771125D01*
X+3011639Y-2771125D01*
X+3011639Y-2691750D01*
X+2570441Y-1821000D02*
X+2824441Y-1821000D01*
X+2824441Y-805000D01*
X+2570441Y-805000D01*
X+2570441Y-1821000D01*
X+2992721Y-1694000D02*
X+3007961Y-1678125D01*
X+3007961Y-1614625D01*
X+2992721Y-1598750D01*
X+2977481Y-1598750D01*
X+2962241Y-1614625D01*
X+2962241Y-1678125D01*
X+2947001Y-1694000D01*
X+2931761Y-1694000D01*
X+2916521Y-1678125D01*
X+2916521Y-1614625D01*
X+2931761Y-1598750D01*
X+3007961Y-1471750D02*
X+3007961Y-1567000D01*
X+2916521Y-1567000D01*
X+2916521Y-1471750D01*
X+2962241Y-1567000D02*
X+2962241Y-1503500D01*
X+3007961Y-1440000D02*
X+2916521Y-1440000D01*
X+2916521Y-1360625D01*
X+2931761Y-1344750D01*
X+2947001Y-1344750D01*
X+2962241Y-1360625D01*
X+2962241Y-1440000D01*
X+2962241Y-1360625D02*
X+2977481Y-1344750D01*
X+3007961Y-1344750D01*
X+2916521Y-1313000D02*
X+2962241Y-1313000D01*
X+3007961Y-1265375D01*
X+2962241Y-1217750D01*
X+2916521Y-1217750D01*
X+2947001Y-1186000D02*
X+2916521Y-1154250D01*
X+2916521Y-1122500D01*
X+2947001Y-1090750D01*
X+2977481Y-1090750D01*
X+3007961Y-1122500D01*
X+3007961Y-1154250D01*
X+2977481Y-1186000D01*
X+2947001Y-1186000D01*
X+2977481Y-963750D02*
X+2977481Y-1059000D01*
X+2916521Y-995500D01*
X+3007961Y-995500D01*
D19*
X-3970000Y-6502559D02*
X+3592323Y-6502559D01*
X+3592323Y+932087D01*
X-3970000Y+932087D01*
X-3970000Y-6502559D01*
D71*
X-2346641Y-2601440D02*
X-2321241Y-2601440D01*
X-2321241Y-2631920D01*
X-2372041Y-2631920D01*
X-2397441Y-2601440D01*
X-2397441Y-2570960D01*
X-2372041Y-2540480D01*
X-2333941Y-2540480D01*
X-2321241Y-2555720D01*
X-2295841Y-2631920D02*
X-2295841Y-2540480D01*
X-2219641Y-2631920D01*
X-2219641Y-2540480D01*
X-2194241Y-2631920D02*
X-2194241Y-2540480D01*
X-2143441Y-2540480D01*
X-2118041Y-2570960D01*
X-2118041Y-2601440D01*
X-2143441Y-2631920D01*
X-2194241Y-2631920D01*
X+2235276Y-4291440D02*
X+2260676Y-4291440D01*
X+2260676Y-4321920D01*
X+2209876Y-4321920D01*
X+2184476Y-4291440D01*
X+2184476Y-4260960D01*
X+2209876Y-4230480D01*
X+2247976Y-4230480D01*
X+2260676Y-4245720D01*
X+2286076Y-4321920D02*
X+2286076Y-4230480D01*
X+2362276Y-4321920D01*
X+2362276Y-4230480D01*
X+2387676Y-4321920D02*
X+2387676Y-4230480D01*
X+2438476Y-4230480D01*
X+2463876Y-4260960D01*
X+2463876Y-4291440D01*
X+2438476Y-4321920D01*
X+2387676Y-4321920D01*
X+2319436Y-2672804D02*
X+2344836Y-2672804D01*
X+2344836Y-2703284D01*
X+2294036Y-2703284D01*
X+2268636Y-2672804D01*
X+2268636Y-2642324D01*
X+2294036Y-2611844D01*
X+2332136Y-2611844D01*
X+2344836Y-2627084D01*
X+2370236Y-2703284D02*
X+2370236Y-2611844D01*
X+2446436Y-2703284D01*
X+2446436Y-2611844D01*
X+2471836Y-2703284D02*
X+2471836Y-2611844D01*
X+2522636Y-2611844D01*
X+2548036Y-2642324D01*
X+2548036Y-2672804D01*
X+2522636Y-2703284D01*
X+2471836Y-2703284D01*
X+2325191Y-893272D02*
X+2350591Y-893272D01*
X+2350591Y-923752D01*
X+2299791Y-923752D01*
X+2274391Y-893272D01*
X+2274391Y-862792D01*
X+2299791Y-832312D01*
X+2337891Y-832312D01*
X+2350591Y-847552D01*
X+2375991Y-923752D02*
X+2375991Y-832312D01*
X+2452191Y-923752D01*
X+2452191Y-832312D01*
X+2477591Y-923752D02*
X+2477591Y-832312D01*
X+2528391Y-832312D01*
X+2553791Y-862792D01*
X+2553791Y-893272D01*
X+2528391Y-923752D01*
X+2477591Y-923752D01*
X-2330999Y-19000D02*
X-2076999Y-19000D01*
X-2076999Y+743000D01*
X-2330999Y+743000D01*
X-2330999Y-19000D01*
X-2076999Y+743000D02*
X-1949999Y+743000D01*
X-1949999Y-19000D01*
X-2076999Y-19000D01*
X-2076999Y+743000D02*
X-1949999Y+616000D01*
X-2076999Y+616000D02*
X-1949999Y+489000D01*
X-2076999Y+489000D02*
X-1949999Y+362000D01*
X-2076999Y+362000D02*
X-1949999Y+235000D01*
X-2076999Y+235000D02*
X-1949999Y+108000D01*
X-2076999Y+108000D02*
X-1949999Y-19000D01*
X-1909359Y+235000D02*
X-1833159Y+235000D01*
X-1817919Y+250875D01*
X-1817919Y+314375D01*
X-1833159Y+330250D01*
X-1909359Y+330250D01*
X-1878879Y+393750D02*
X-1909359Y+425500D01*
X-1817919Y+425500D01*
X-3488553Y-2589000D02*
X-3462677Y-2594080D01*
X-3438706Y-2608685D01*
X-3417116Y-2631862D01*
X-3398383Y-2662660D01*
X-3382984Y-2700125D01*
X-3371396Y-2743305D01*
X-3364093Y-2791248D01*
X-3361553Y-2843000D01*
X-3488553Y-3097000D02*
X-3462677Y-3091920D01*
X-3438706Y-3077315D01*
X-3417116Y-3054138D01*
X-3398383Y-3023340D01*
X-3382984Y-2985875D01*
X-3371396Y-2942695D01*
X-3364093Y-2894752D01*
X-3361553Y-2843000D01*
X-3488553Y-2589000D02*
X-3514429Y-2594080D01*
X-3538400Y-2608685D01*
X-3559990Y-2631862D01*
X-3578723Y-2662660D01*
X-3594122Y-2700125D01*
X-3605710Y-2743305D01*
X-3613013Y-2791248D01*
X-3615553Y-2843000D01*
X-3488553Y-3097000D02*
X-3514429Y-3091920D01*
X-3538400Y-3077315D01*
X-3559990Y-3054138D01*
X-3578723Y-3023340D01*
X-3594122Y-2985875D01*
X-3605710Y-2942695D01*
X-3613013Y-2894752D01*
X-3615553Y-2843000D01*
X-3254713Y-2804750D02*
X-3239473Y-2820625D01*
X-3239473Y-2868250D01*
X-3269953Y-2900000D01*
X-3300433Y-2900000D01*
X-3330913Y-2868250D01*
X-3330913Y-2820625D01*
X-3315673Y-2804750D01*
X-3315673Y-2757125D02*
X-3330913Y-2741250D01*
X-3330913Y-2693625D01*
X-3315673Y-2677750D01*
X-3300433Y-2677750D01*
X-3285193Y-2693625D01*
X-3285193Y-2741250D01*
X-3269953Y-2757125D01*
X-3239473Y-2757125D01*
X-3239473Y-2677750D01*
X-140000Y+73000D02*
X-165876Y+78080D01*
X-189848Y+92685D01*
X-211438Y+115862D01*
X-230170Y+146660D01*
X-245569Y+184125D01*
X-257158Y+227305D01*
X-264460Y+275248D01*
X-267000Y+327000D01*
X-140000Y+581000D02*
X-165876Y+575920D01*
X-189848Y+561315D01*
X-211438Y+538138D01*
X-230170Y+507340D01*
X-245569Y+469875D01*
X-257158Y+426695D01*
X-264460Y+378752D01*
X-267000Y+327000D01*
X-140000Y+73000D02*
X-114124Y+78080D01*
X-90152Y+92685D01*
X-68562Y+115862D01*
X-49830Y+146660D01*
X-34431Y+184125D01*
X-22842Y+227305D01*
X-15540Y+275248D01*
X-13000Y+327000D01*
X-140000Y+581000D02*
X-114124Y+575920D01*
X-90152Y+561315D01*
X-68562Y+538138D01*
X-49830Y+507340D01*
X-34431Y+469875D01*
X-22842Y+426695D01*
X-15540Y+378752D01*
X-13000Y+327000D01*
X-301090Y+317040D02*
X-285850Y+301165D01*
X-285850Y+253540D01*
X-316330Y+221790D01*
X-346810Y+221790D01*
X-377290Y+253540D01*
X-377290Y+301165D01*
X-362050Y+317040D01*
X-346810Y+380540D02*
X-377290Y+412290D01*
X-285850Y+412290D01*
X-2318641Y-722361D02*
X-2293241Y-722361D01*
X-2293241Y-752841D01*
X-2344041Y-752841D01*
X-2369441Y-722361D01*
X-2369441Y-691881D01*
X-2344041Y-661401D01*
X-2305941Y-661401D01*
X-2293241Y-676641D01*
X-2267841Y-752841D02*
X-2267841Y-661401D01*
X-2191641Y-752841D01*
X-2191641Y-661401D01*
X-2166241Y-752841D02*
X-2166241Y-661401D01*
X-2115441Y-661401D01*
X-2090041Y-691881D01*
X-2090041Y-722361D01*
X-2115441Y-752841D01*
X-2166241Y-752841D01*
X-2494751Y+140471D02*
X-2558251Y+140471D01*
X-2558251Y+109991D01*
X-2507451Y+109991D01*
X-2494751Y+94751D01*
X-2494751Y+64271D01*
X-2507451Y+49031D01*
X-2545551Y+49031D01*
X-2558251Y+64271D01*
X-2469351Y+140471D02*
X-2469351Y+94751D01*
X-2431251Y+49031D01*
X-2393151Y+94751D01*
X-2393151Y+140471D01*
X-2723441Y-650480D02*
X-2723441Y-696200D01*
X-2685341Y-741920D01*
X-2647241Y-696200D01*
X-2647241Y-650480D01*
X-2583741Y-680960D02*
X-2583741Y-741920D01*
X-2583741Y-650480D02*
X-2583741Y-650480D01*
X-2520241Y-741920D02*
X-2520241Y-680960D01*
X-2520241Y-696200D02*
X-2507541Y-680960D01*
X-2456741Y-680960D01*
X-2444041Y-696200D01*
X-2444041Y-741920D01*
X+442559Y-2651920D02*
X+442559Y-2560480D01*
X+493359Y-2560480D01*
X+518759Y-2590960D01*
X+518759Y-2621440D01*
X+493359Y-2651920D01*
X+442559Y-2651920D01*
X+556859Y-2575720D02*
X+569559Y-2560480D01*
X+607659Y-2560480D01*
X+620359Y-2575720D01*
X+620359Y-2590960D01*
X+607659Y-2606200D01*
X+569559Y-2606200D01*
X+556859Y-2621440D01*
X+556859Y-2651920D01*
X+620359Y-2651920D01*
X-827441Y-2641920D02*
X-827441Y-2550480D01*
X-776641Y-2550480D01*
X-751241Y-2580960D01*
X-751241Y-2611440D01*
X-776641Y-2641920D01*
X-827441Y-2641920D01*
X-649641Y-2550480D02*
X-713141Y-2550480D01*
X-713141Y-2580960D01*
X-662341Y-2580960D01*
X-649641Y-2596200D01*
X-649641Y-2626680D01*
X-662341Y-2641920D01*
X-700441Y-2641920D01*
X-713141Y-2626680D01*
X-1587441Y-2641920D02*
X-1587441Y-2550480D01*
X-1536641Y-2550480D01*
X-1511241Y-2580960D01*
X-1511241Y-2611440D01*
X-1536641Y-2641920D01*
X-1587441Y-2641920D01*
X-1460441Y-2596200D02*
X-1473141Y-2580960D01*
X-1473141Y-2565720D01*
X-1460441Y-2550480D01*
X-1422341Y-2550480D01*
X-1409641Y-2565720D01*
X-1409641Y-2580960D01*
X-1422341Y-2596200D01*
X-1460441Y-2596200D01*
X-1473141Y-2611440D01*
X-1473141Y-2626680D01*
X-1460441Y-2641920D01*
X-1422341Y-2641920D01*
X-1409641Y-2626680D01*
X-1409641Y-2611440D01*
X-1422341Y-2596200D01*
X+3094000Y-228000D02*
X+3094000Y+788000D01*
X+2078000Y-228000D02*
X+2078000Y+788000D01*
X+3094000Y+788000D02*
X+2078000Y+788000D01*
X+3094000Y-228000D02*
X+2078000Y-228000D01*
X+2459000Y-329600D02*
X+2459000Y-344840D01*
X+2474875Y-360080D01*
X+2538375Y-360080D01*
X+2554250Y-344840D01*
X+2554250Y-268640D01*
X+2617750Y-299120D02*
X+2649500Y-268640D01*
X+2649500Y-360080D01*
X-3450981Y-3387340D02*
X-3450981Y-5907340D01*
X-1020981Y-5907340D02*
X-3450981Y-5907340D01*
X-1020981Y-3387340D02*
X-3450981Y-3387340D01*
X-250000Y-5050000D02*
X-1000000Y-5900000D01*
X-250000Y-4250000D02*
X-1000000Y-3400000D01*
X-250000Y-5050000D02*
X-250000Y-4250000D01*
X-2167990Y-5947980D02*
X-2072740Y-6039420D01*
X-2167990Y-6039420D02*
X-2072740Y-5947980D01*
X-2040990Y-6039420D02*
X-2040990Y-5947980D01*
X-1961615Y-5947980D01*
X-1945740Y-5963220D01*
X-1945740Y-5978460D01*
X-1961615Y-5993700D01*
X-1945740Y-6008940D01*
X-1945740Y-6024180D01*
X-1961615Y-6039420D01*
X-2040990Y-6039420D01*
X-2040990Y-5993700D02*
X-1961615Y-5993700D01*
X-1818740Y-6039420D02*
X-1913990Y-6039420D01*
X-1913990Y-5947980D01*
X-1818740Y-5947980D01*
X-1913990Y-5993700D02*
X-1850490Y-5993700D01*
X-1691740Y-6039420D02*
X-1786990Y-6039420D01*
X-1786990Y-5947980D01*
X-1691740Y-5947980D01*
X-1786990Y-5993700D02*
X-1723490Y-5993700D01*
X-1644115Y-5963220D02*
X-1628240Y-5947980D01*
X-1580615Y-5947980D01*
X-1564740Y-5963220D01*
X-1564740Y-5978460D01*
X-1580615Y-5993700D01*
X-1628240Y-5993700D01*
X-1644115Y-6008940D01*
X-1644115Y-6039420D01*
X-1564740Y-6039420D01*
X+207460Y-6043441D02*
X+1807460Y-6043441D01*
X+1807460Y-3443441D01*
X+207460Y-3443441D01*
X+207460Y-6043441D01*
X+816960Y-6175521D02*
X+816960Y-6084081D01*
X+864585Y-6129801D01*
X+912210Y-6084081D01*
X+912210Y-6175521D01*
X+943960Y-6175521D02*
X+943960Y-6084081D01*
X+1023335Y-6084081D01*
X+1039210Y-6099321D01*
X+1039210Y-6114561D01*
X+1023335Y-6129801D01*
X+943960Y-6129801D01*
X+1070960Y-6084081D02*
X+1070960Y-6160281D01*
X+1086835Y-6175521D01*
X+1150335Y-6175521D01*
X+1166210Y-6160281D01*
X+1166210Y-6084081D01*
M02*
