G04 PROTEUS GERBER X2 FILE*
%TF.GenerationSoftware,Labcenter,Proteus,8.6-SP2-Build23525*%
%TF.CreationDate,2021-03-06T05:49:37+00:00*%
%TF.FileFunction,Plated,1,2,PTH*%
%TF.FilePolarity,Positive*%
%TF.Part,Single*%
%FSLAX45Y45*%
%MOMM*%
G01*
%TA.AperFunction,ViaDrill*%
%ADD36C,0.381000*%
%TA.AperFunction,ComponentDrill*%
%ADD37C,1.016000*%
%TA.AperFunction,ComponentDrill*%
%ADD38C,1.143000*%
%TA.AperFunction,ComponentDrill*%
%ADD39C,0.762000*%
%TA.AperFunction,OtherDrill,Unknown*%
%ADD40C,3.200000*%
%TA.AperFunction,ComponentDrill*%
%ADD41C,1.524000*%
%TD.AperFunction*%
D36*
X+2312500Y-549113D03*
X+2323084Y-1882612D03*
X+2963744Y-4015076D03*
X+3269212Y-4864531D03*
D37*
X-2511441Y-2793380D03*
X-2257441Y-2793380D03*
X-2003441Y-2793380D03*
X-1749441Y-2793380D03*
X-1495441Y-2795920D03*
X-1241441Y-2795920D03*
X-987441Y-2795920D03*
X-733441Y-2795920D03*
X-479441Y-2795920D03*
X-225441Y-2795920D03*
X+28559Y-2798460D03*
X+282559Y-2798460D03*
X+536559Y-2798460D03*
X+790559Y-2798460D03*
X+1044559Y-2798460D03*
X-2513441Y-504920D03*
X-2259441Y-504920D03*
X-2005441Y-504920D03*
X-1751441Y-504920D03*
X-1497441Y-507460D03*
X-1243441Y-507460D03*
X-989441Y-507460D03*
X-735441Y-507460D03*
X-481441Y-507460D03*
X-227441Y-507460D03*
X+26559Y-510000D03*
X+280559Y-510000D03*
X+534559Y-510000D03*
X+788559Y-510000D03*
X+1042559Y-510000D03*
D38*
X+555201Y+490000D03*
X+925201Y+490000D03*
X+1295201Y+490000D03*
D39*
X-2469530Y-1153185D03*
X-2469530Y-2169185D03*
D37*
X-2856000Y+330000D03*
X-3110000Y+330000D03*
X+2674853Y-4307706D03*
X+2674853Y-4561706D03*
X+2674853Y-4815706D03*
X+2674853Y-5069706D03*
X+2702559Y-2650000D03*
X+2702559Y-2904000D03*
X+2702559Y-3158000D03*
X+2702559Y-3412000D03*
X+2697441Y-932000D03*
X+2697441Y-1186000D03*
X+2697441Y-1440000D03*
X+2697441Y-1694000D03*
D40*
X+3200000Y-6100000D03*
X-3650000Y+600000D03*
D37*
X-2203999Y+616000D03*
X-2203999Y+362000D03*
X-2203999Y+108000D03*
D39*
X-3488553Y-2716000D03*
X-3488553Y-2970000D03*
X-140000Y+200000D03*
X-140000Y+454000D03*
D41*
X+2840000Y+280000D03*
X+2332000Y+280000D03*
D39*
X-1100000Y-3550000D03*
X-1300000Y-3550000D03*
X-1500000Y-3550000D03*
X-1700000Y-3550000D03*
X-1900000Y-3550000D03*
X-2100000Y-3550000D03*
X-2300000Y-3550000D03*
X-2500000Y-3550000D03*
X-2700000Y-3550000D03*
X-2900000Y-3550000D03*
X-2900000Y-5750000D03*
X-2700000Y-5750000D03*
X-2500000Y-5750000D03*
X-2300000Y-5750000D03*
X-2100000Y-5750000D03*
X-1900000Y-5750000D03*
X-1700000Y-5750000D03*
X-1500000Y-5750000D03*
X-1300000Y-5750000D03*
X-1100000Y-5750000D03*
D37*
X+1647460Y-5886000D03*
X+1647460Y-5632000D03*
X+1647460Y-5378000D03*
X+1647460Y-5124000D03*
X+1647460Y-4870000D03*
X+1650000Y-4616000D03*
X+1650000Y-4362000D03*
X+1650000Y-4108000D03*
X+1650000Y-3854000D03*
X+1650000Y-3600000D03*
M02*
